<svg id="svg" version="1.1" xmlns="http://www.w3.org/2000/svg" xmlns:xlink="http://www.w3.org/1999/xlink" width="400" height="400" viewBox="0, 0, 400,400"><g id="svgg"><path id="path0" d="M148.200 96.602 C 122.670 97.952,111.012 105.551,103.407 125.800 C 102.828 127.340,101.815 130.040,101.154 131.800 C 99.615 135.903,97.216 143.420,95.602 149.200 C 95.387 149.970,94.844 151.770,94.394 153.200 C 93.944 154.630,93.230 157.420,92.807 159.400 C 92.384 161.380,91.760 164.260,91.419 165.800 C 91.079 167.340,90.800 168.713,90.800 168.852 C 90.800 169.126,88.067 172.760,83.600 178.426 C 78.803 184.511,72.000 194.959,72.000 196.242 C 72.000 196.333,71.652 197.172,71.226 198.104 C 69.578 201.716,67.994 208.523,67.203 215.400 C 66.878 218.221,66.780 230.307,66.871 256.409 L 67.000 293.417 68.304 296.065 C 69.902 299.312,72.073 301.544,75.100 303.053 L 77.400 304.200 88.400 304.200 L 99.400 304.200 101.552 303.067 C 108.389 299.467,109.367 297.004,109.518 283.000 C 109.612 274.360,109.759 271.708,110.162 271.398 C 110.514 271.127,113.164 271.148,118.243 271.462 C 163.584 274.261,225.516 274.203,285.500 271.306 L 290.000 271.088 290.000 280.367 C 290.000 295.851,291.407 299.685,298.336 303.088 L 300.600 304.200 311.600 304.200 L 322.600 304.200 324.735 303.076 C 327.590 301.572,330.160 298.926,331.500 296.110 L 332.600 293.800 332.600 254.000 C 332.600 211.414,332.652 212.655,330.538 204.400 C 329.337 199.709,329.088 199.038,326.979 194.800 C 323.721 188.255,322.297 186.146,313.722 175.170 L 309.244 169.438 308.384 165.619 C 307.333 160.953,305.561 153.968,304.471 150.200 C 304.026 148.660,303.199 145.780,302.632 143.800 C 299.808 133.929,294.710 120.862,291.663 115.687 C 289.670 112.303,283.312 105.658,280.578 104.102 C 266.907 96.324,263.549 95.992,199.400 96.067 C 172.414 96.099,154.111 96.290,148.200 96.602 M217.737 129.278 C 219.503 131.168,219.148 132.732,213.801 146.600 C 212.783 149.240,211.619 152.390,211.215 153.600 C 210.435 155.931,207.394 164.051,206.795 165.400 C 206.249 166.632,203.943 173.288,203.712 174.300 L 203.507 175.200 218.323 175.200 L 233.139 175.200 234.369 176.236 C 236.553 178.073,235.163 182.740,231.581 185.600 C 231.344 185.789,219.110 201.279,217.407 203.545 C 216.972 204.125,214.542 207.201,212.007 210.380 C 209.473 213.559,206.680 217.088,205.800 218.222 C 189.647 239.044,186.646 242.571,184.761 242.948 C 180.301 243.840,179.155 240.000,181.791 233.000 C 182.620 230.800,184.456 225.940,185.871 222.200 C 187.286 218.460,189.079 213.690,189.855 211.600 C 190.632 209.510,191.415 207.440,191.595 207.000 C 193.872 201.455,195.609 196.339,195.355 195.927 C 195.244 195.747,188.576 195.600,180.538 195.600 C 164.051 195.600,163.933 195.579,163.372 192.591 C 163.004 190.631,163.626 189.646,171.381 179.912 C 175.111 175.230,183.109 165.190,189.154 157.600 C 195.199 150.010,201.147 142.560,202.372 141.043 C 203.598 139.527,205.206 137.476,205.946 136.485 C 212.594 127.588,214.861 126.202,217.737 129.278 " stroke="none" fill="#fbfbfc" fill-rule="evenodd"></path></g></svg>