<svg viewBox="0 0 200 200" xmlns="http://www.w3.org/2000/svg" version="1.1">
 <g>
  <title>Layer 1</title>
  <g id="svgg"/>
  <path stroke="null" id="path0" d="m1.52849,7.71353c-0.188,0.30692 0.78531,3.15928 4.10575,12.03617c0.6306,1.68805 1.69302,4.53943 2.35985,6.33639c0.66683,1.79696 1.3552,3.62362 1.52852,4.05925c0.1743,0.43563 0.70306,1.86131 1.17601,3.16819c0.47295,1.30688 1.00171,2.73257 1.17503,3.16819c0.17332,0.43563 0.66781,1.77221 1.09767,2.97018c0.43084,1.19797 1.32876,3.64837 1.99657,5.44533c0.66781,1.79696 1.76059,4.73744 2.4284,6.5344c0.66781,1.79696 1.54027,4.08202 1.93978,5.07901c0.39853,0.996 1.00661,2.689 1.35128,3.76223c0.34468,1.07224 0.78923,2.30684 0.988,2.74247c0.19878,0.43563 0.73146,1.86131 1.18286,3.16819c0.45239,1.30688 0.96157,2.73257 1.13292,3.16819c0.69718,1.7732 1.1153,2.82167 1.49914,3.76223c0.22228,0.54453 0.61689,1.6138 0.8754,2.37615c0.54247,1.59895 0.90477,2.56921 1.4776,3.96024c0.45141,1.09699 0.38874,0.92967 5.07026,13.46482c1.83011,4.9008 3.67589,9.89071 4.10183,11.08868c0.42693,1.19797 1.00465,2.71277 1.2847,3.36621c0.28103,0.65344 0.89988,2.25734 1.37576,3.56422c0.47687,1.30688 1.02521,2.77712 1.22007,3.2672c0.3672,0.9267 0.88617,2.23754 1.48935,3.76223c0.1929,0.49008 0.56401,1.51479 0.82252,2.27714c0.54051,1.59103 0.90184,2.5603 1.47662,3.96024c0.22423,0.54453 0.9694,2.50485 1.65679,4.35627c0.68739,1.85141 1.39535,3.72263 1.57356,4.15825c0.45728,1.11877 5.38164,14.21232 6.33048,16.83103c0.98507,2.7197 1.21909,3.30779 2.24039,5.63939c0.45239,1.03164 0.82252,2.05933 0.82252,2.28209c0,0.22276 0.15569,0.71482 0.34565,1.09303c0.4563,0.90591 1.03207,2.34743 1.61958,4.0543c0.26242,0.76235 0.706,1.92072 0.98605,2.57416c0.28005,0.65344 0.8049,1.99002 1.16524,2.97018c0.36132,0.98016 0.80196,2.13853 0.98017,2.57416c0.17821,0.43563 1.39927,3.64342 2.71334,7.12844c3.73268,9.9016 4.80783,11.49163 9.13096,13.51037l2.447,1.14253l22.32557,0.11683c30.05727,0.15841 30.39999,0.04752 34.52141,-11.20551c0.95765,-2.61376 2.54198,-6.89082 3.52019,-9.50458c0.97821,-2.61376 2.13072,-5.73245 2.56157,-6.93042c0.42987,-1.19797 0.94394,-2.48802 1.14174,-2.86623c0.1978,-0.3782 0.36034,-0.92373 0.36034,-1.21183c0,-0.2891 0.35251,-1.26332 0.78335,-2.16526c0.43084,-0.90096 0.78335,-1.90389 0.78335,-2.22863c0,-0.32474 0.17625,-0.69997 0.39168,-0.83462c0.21542,-0.13465 0.39168,-0.5574 0.39168,-0.93858c0,-0.38216 0.35251,-1.43262 0.78335,-2.33456c0.43084,-0.90096 0.78335,-1.82765 0.78335,-2.05933c0,-0.23167 0.15569,-0.72967 0.34565,-1.10788c0.4661,-0.92571 1.04284,-2.37813 1.61273,-4.0543c0.25851,-0.76235 0.61102,-1.74251 0.78237,-2.17813c0.35741,-0.90492 1.98972,-5.32059 4.09988,-11.08868c1.77234,-4.84536 3.68764,-9.98971 4.16352,-11.18769c0.91554,-2.30189 1.08984,-2.76326 1.5295,-4.05925c0.25851,-0.76235 0.62962,-1.78706 0.82252,-2.27714c0.19388,-0.49008 0.51114,-1.29203 0.706,-1.78211c0.19486,-0.49008 0.74027,-1.96032 1.21322,-3.2672c1.01836,-2.81474 1.32583,-3.62857 1.8683,-4.9503c0.22423,-0.54453 0.96744,-2.50485 1.65288,-4.35627c0.68543,-1.85141 1.41297,-3.78797 1.61665,-4.30379c0.20367,-0.51582 1.17013,-3.09988 2.14835,-5.74235c2.2825,-6.17402 4.06267,-10.92928 4.46511,-11.9332c0.1743,-0.43563 1.05557,-2.75237 1.9574,-5.14832c0.90184,-2.39595 1.79975,-4.75724 1.99559,-5.24732c0.19486,-0.49008 0.5131,-1.29203 0.70796,-1.78211c0.19486,-0.49008 0.74027,-1.96032 1.21322,-3.2672c0.83525,-2.30783 1.17405,-3.19493 1.92999,-5.04931c0.19976,-0.49008 0.91163,-2.40585 1.58237,-4.25726c0.67075,-1.85141 1.37576,-3.72263 1.56573,-4.15825c0.19094,-0.43563 1.34345,-3.46521 2.56352,-6.73241c2.13464,-5.72255 2.4,-6.41361 3.37821,-8.81154c0.62472,-1.53459 0.97332,-2.46624 1.51383,-4.05925c0.25851,-0.76235 0.65312,-1.83161 0.8754,-2.37615c0.22228,-0.54453 0.55716,-1.39104 0.74419,-1.88112c0.18605,-0.49008 0.49155,-1.29203 0.6776,-1.78211c0.18703,-0.49008 0.52289,-1.33658 0.74614,-1.88112c0.22423,-0.54453 0.9694,-2.50485 1.65679,-4.35627c0.68739,-1.85141 1.40318,-3.72263 1.59119,-4.15825c0.99975,-2.31377 1.88005,-5.11465 1.70086,-5.40771c-0.3623,-0.59107 -42.25507,-0.41088 -45.39925,0.19504c-4.43966,0.8564 -10.76915,5.29484 -10.76915,7.55218c0,0.34652 -0.13807,0.63067 -0.30649,0.63067c-0.16842,0 -0.55031,0.8465 -0.84896,1.88112c-0.29865,1.03461 -0.66879,2.14843 -0.8235,2.47515c-0.44357,0.94254 -1.03696,2.4603 -1.54614,3.96024c-0.46218,1.36133 -0.81273,2.28506 -1.54027,4.05925c-0.20073,0.49008 -0.91848,2.49495 -1.5951,4.45527c-0.67662,1.96032 -1.56377,4.45527 -1.97111,5.54434c-0.40832,1.08907 -0.99094,2.69296 -1.29449,3.56422c-0.30453,0.87125 -1.55202,4.43547 -2.77307,7.92049c-1.22105,3.48501 -2.48519,7.13834 -2.8093,8.1185c-0.32411,0.98016 -0.74516,2.13853 -0.93611,2.57416c-0.18996,0.43563 -0.72166,1.95042 -1.18091,3.36621c-0.45924,1.41579 -0.988,2.93058 -1.17503,3.36621c-0.18703,0.43563 -0.71579,1.95042 -1.17503,3.36621c-0.45924,1.41579 -0.99094,2.93058 -1.18091,3.36621c-0.19094,0.43563 -0.61199,1.594 -0.93611,2.57416c-0.32411,0.98016 -1.58237,4.63348 -2.79657,8.1185c-1.2142,3.48501 -2.88568,8.29671 -3.71407,10.69265c-3.02766,8.75412 -3.57699,10.31148 -3.90795,11.08868c-0.18605,0.43563 -0.56304,1.50489 -0.83721,2.37615c-0.27417,0.87125 -0.6071,1.76231 -0.73831,1.98012c-0.13219,0.21781 -0.47882,1.19797 -0.77062,2.17813c-0.29082,0.98016 -0.67564,1.95141 -0.85386,2.15833c-0.17723,0.20692 -0.32313,0.69898 -0.32313,1.09402c0,0.39503 -0.15569,1.02768 -0.34565,1.40589c-0.63745,1.26728 -1.60098,3.69392 -2.39608,6.03442c-0.25851,0.76235 -0.60808,1.74251 -0.7765,2.17813c-0.16842,0.43563 -0.89988,2.34743 -1.62546,4.24934c-1.30918,3.43254 -2.64284,3.94044 -2.68103,1.02174c-0.0049,-0.3683 -0.18507,-0.78017 -0.40049,-0.91482c-0.21542,-0.13465 -0.39168,-0.59305 -0.39168,-1.01877c0,-0.42573 -0.15569,-1.08313 -0.34565,-1.46133c-0.58262,-1.15738 -1.14565,-2.59198 -1.66854,-4.25231c-0.27417,-0.87125 -0.6071,-1.76231 -0.73831,-1.98012c-0.13219,-0.21781 -0.47882,-1.19797 -0.77062,-2.17813c-0.29082,-0.98016 -0.67564,-1.95141 -0.85386,-2.15833c-0.17723,-0.20692 -0.32313,-0.69898 -0.32313,-1.09402c0,-0.39503 -0.15569,-1.02768 -0.34565,-1.40589c-0.80685,-1.6039 -1.9339,-4.67903 -5.3317,-14.54894c-1.4257,-4.13845 -2.86414,-8.2373 -3.19706,-9.10856c-0.33293,-0.87125 -1.10551,-3.09889 -1.71652,-4.9503c-1.64015,-4.97109 -2.56548,-7.49377 -2.85826,-7.7898c-0.14296,-0.14455 -0.25949,-0.59206 -0.25949,-0.99402c0,-0.40196 -0.16744,-1.04055 -0.37307,-1.41876c-0.20563,-0.3782 -0.74614,-1.84646 -1.20049,-3.26225c-0.45532,-1.41579 -0.9694,-2.93058 -1.14174,-3.36621c-0.82056,-2.0722 -1.11824,-2.87514 -1.54516,-4.15825c-0.75594,-2.27318 -5.51187,-15.87463 -6.33537,-18.11811c-0.41909,-1.14352 -1.1153,-3.05929 -1.54614,-4.25726c-1.88984,-5.25623 -2.44602,-6.78093 -2.74076,-7.52446c-0.17234,-0.43563 -0.52583,-1.41579 -0.78433,-2.17813c-0.56989,-1.67617 -1.14663,-3.12859 -1.61273,-4.0543c-0.18996,-0.3782 -0.34565,-1.0356 -0.34565,-1.46133c0,-0.42573 -0.17625,-0.88412 -0.39168,-1.01877c-0.21542,-0.13465 -0.39168,-0.50988 -0.39168,-0.83462c0,-0.32474 -0.35251,-1.32767 -0.78335,-2.22863c-0.43084,-0.90195 -0.78335,-1.87616 -0.78335,-2.16526c0,-0.28811 -0.15569,-0.83363 -0.34565,-1.21183c-0.41714,-0.82967 -0.96842,-2.18803 -1.64406,-4.0543c-1.6235,-4.48596 -4.73048,-6.98191 -10.15226,-8.16008c-2.9082,-0.63166 -45.21908,-0.82967 -45.59607,-0.21286" />
 </g>

</svg>