<svg viewBox="0 0 99 116" xmlns="http://www.w3.org/2000/svg" xmlns:xlink="http://www.w3.org/1999/xlink" version="1.1" xml:space="preserve">
 <g>
  <title>Layer 1</title>
  <path class="st1" d="m69.04208,92.85625l-7.04309,0l-8.43186,-7.74583l0,-3.97222l8.72946,-8.34167l0,-13.20764l11.40782,-7.44792l12.99499,9.83125l-17.65731,30.88403l-0.00001,0zm-29.16433,-20.85417l1.28958,-12.41319l-4.26553,-11.12222l25.19639,0l-4.16633,11.12222l1.19038,12.41319l-9.72144,0l-9.52305,0zm5.75351,13.10833l-8.43186,7.84514l-7.14228,0l-17.75651,-30.98333l13.09419,-9.73194l11.50701,7.34861l0,13.20764l8.72946,8.34167l0,3.97222l-0.00001,-0.00001zm-15.67335,-59.58333l38.98497,0l4.66232,19.86111l-48.21042,0l4.56313,-19.86111zm19.54208,-24.72708l-49.5,28.6l0,57.2l49.5,28.6l49.5,-28.6l0,-57.2l-49.5,-28.6z" id="svg_2" stroke="null"/>
  <g id="svg_3">
   <g id="svg_4">
    <g id="svg_5">
     <defs>
      <path id="SVGID_1_" d="m70.1,264.3l0,24.9l19.6,0l4.7,20l-24.3,0l0,3l12.8,0l-4.2,11.2l1.2,12.5l-9.8,0l0,43.6l49.9,-28.8l0,-57.6l-49.9,-28.8zm12.9,59.2l0,0l11.5,-7.5l13.1,9.9l-17.8,31.1l-7.1,0l-8.5,-7.8l0,-4l8.8,-8.4l0,-13.3z"/>
     </defs>
     <clipPath id="SVGID_2_">
      <use xlink:href="#SVGID_1_" id="svg_6"/>
     </clipPath>
    </g>
   </g>
  </g>
  <g id="svg_7">
   <g id="svg_8">
    <g id="svg_9">
     <defs>
      <path id="SVGID_3_" d="m70.1,264.3l-49.9,28.8l0,57.6l49.9,28.8l0,-43.5l-9.7,0l1.3,-12.5l-4.3,-11.2l12.7,0l0,-3l-24.2,0l4.6,-20l19.7,0l0,-25l-0.1,0zm-37.5,61.6l0,0l13.2,-9.8l11.6,7.4l0,13.3l8.8,8.4l0,4l-8.5,7.9l-7.2,0l-17.9,-31.2z"/>
     </defs>
     <clipPath id="SVGID_4_">
      <use xlink:href="#SVGID_3_" id="svg_10"/>
     </clipPath>
    </g>
   </g>
  </g>
 </g>
</svg>